PathFileType	4	(X/Y/Z)	Patient4_TMGait_0pt5_02_right_39.trc.trc
DataRate	CameraRate	NumFrames	NumMarkers	Units	OrigDataRate	OrigDataStartFrame	OrigNumFrames
76.923076923077	76.923076923077	5	33	mm	76.923076923077	124	       141
Frame#	Time	Sacral			L.Shoulder			Chest			R.Shoulder			Neck			R.ASIS			L.ASIS			R.Thigh.Superior			R.Thigh.Lateral			R.Thigh.Inferior			R.Patella			L.Thigh.Superior			L.Thigh.Lateral			L.Thigh.Inferior			L.Patella			L.Shank.Superior			L.Shank.Lateral			L.Shank.Inferior			R.Shank.Superior			R.Shank.Lateral			R.Shank.Inferior			R.Heel			R.Midfoot.Superior			R.Midfoot.Lateral			R.Toe			L.Heel			L.Midfoot.Lateral			L.Midfoot.Superior			L.Toe			L.Elbow			L.Wrist			R.Elbow			R.Wrist			
		X1	Y1	Z1	X2	Y2	Z2	X3	Y3	Z3	X4	Y4	Z4	X5	Y5	Z5	X6	Y6	Z6	X7	Y7	Z7	X8	Y8	Z8	X9	Y9	Z9	X10	Y10	Z10	X11	Y11	Z11	X12	Y12	Z12	X13	Y13	Z13	X14	Y14	Z14	X15	Y15	Z15	X16	Y16	Z16	X17	Y17	Z17	X18	Y18	Z18	X19	Y19	Z19	X20	Y20	Z20	X21	Y21	Z21	X22	Y22	Z22	X23	Y23	Z23	X24	Y24	Z24	X25	Y25	Z25	X26	Y26	Z26	X27	Y27	Z27	X28	Y28	Z28	X29	Y29	Z29	X30	Y30	Z30	X31	Y31	Z31	X32	Y32	Z32	X33	Y33	Z33	

124	52.559000000000	711.412991204624	1004.108857234119	436.455603548244	923.846806331291	1427.412193960313	276.137230907078	1000.325722519101	1352.304694824770	449.210379960661	896.052915669066	1429.711041111380	610.636754986609	905.514559464448	1487.701655654070	425.747326937676	923.633061194733	935.863799446828	578.122504421931	937.229424930214	951.274299967318	302.929937583205	993.935388593217	756.474294254751	555.401535290617	932.592384684039	635.922466843453	616.818742037278	1025.368847730126	596.300114928198	543.516244952290	1049.166505022301	512.467641182806	553.938868581537	938.093514367746	724.542179715331	336.194419443076	827.325721077557	629.615688399749	266.187703230686	879.694366066219	537.383971913327	338.114814334196	862.414106293739	469.860706803128	348.373034588194	828.609483328427	403.881688473831	337.588767695544	728.137806038436	301.767897821179	282.161313457863	756.320226969720	186.663168054571	357.877455677963	1033.227503455870	423.185351506385	561.952000767512	976.860437619781	310.324933636148	622.597512647553	1043.817956898587	223.979142944927	569.727412724927	945.182990649310	44.450398700744	539.284168169975	1110.136756199277	109.659457411192	577.629438085814	1029.517978598636	39.338393985020	612.739938657278	1233.448338229711	67.643471280680	602.272278817125	611.204055368080	38.605710377794	395.029904562175	686.205370575038	35.042279560356	315.739308908327	769.814861617506	95.455290327540	344.033284294531	898.215334663062	40.471442801528	316.286116637996	991.046413696303	1105.809205982065	113.992986658899	1245.519939166224	1094.320591256248	136.649627360654	722.610689635743	1131.272353438429	705.340590881761	677.012399448516	873.455023153990	709.463045637003	
125	52.572000000000	712.940739114301	1002.595326412093	439.002407999370	923.750596558627	1426.318600569612	278.865336761365	1000.439294068545	1351.793235343220	452.070810359176	895.623834073167	1428.707467679695	613.417326584814	905.059245588134	1486.721156631836	428.477659669495	925.662378397247	934.431781079582	580.398103039625	938.844335647973	950.443261547575	305.377352215001	996.104592118060	754.387669266375	556.459965470831	933.561572325543	634.028290373695	616.661574205767	1025.803504979848	594.378664864218	542.913422124707	1048.082824698592	509.387244034608	552.410500159809	938.537883259743	723.118732236363	337.495819087784	826.747904545854	628.818685730876	267.948235109425	878.891248606154	536.099531725986	339.421316356292	861.430460348810	468.079110361985	349.556588209974	826.385464182165	402.587960139641	338.754396013062	724.399696189676	301.997747305137	283.001638668462	751.073045071669	186.221724006543	358.183718847965	1030.884848026391	419.680861424247	560.607836577176	972.678660102729	307.812913954285	621.606762742878	1036.996685700741	220.168191965807	567.720658618820	933.723195761262	43.359508907563	538.382285146437	1100.412375504763	105.508897884727	574.997206618560	1018.327654254235	37.642721133411	611.555567822935	1223.170428896758	60.928032760429	599.299907198045	604.577987931877	39.002391744683	394.859124785548	679.673377477557	35.143624529154	315.713971333465	763.451439416125	95.441447468800	343.979696167104	891.741746127211	40.277338988856	316.217693601577	990.510696550657	1103.825923707329	117.640888530768	1245.091836496357	1093.818764909826	140.565467769539	723.136951163534	1129.359425266757	706.670935981187	677.044194790765	871.490855970992	709.475510775490	
126	52.585000000000	714.326485681287	1001.304661419711	441.606308782306	923.700154581501	1425.438393717939	281.688680017404	1000.642402615120	1351.385392517910	454.970061210104	895.384227541261	1427.790138540687	616.319482922135	904.791821665132	1485.924777113786	431.339380182847	927.697772049888	933.276002453637	582.621808041447	940.286617254631	949.802037339259	307.788201387915	998.339755778630	752.673836195698	557.117750481710	935.078560901689	632.697252680761	616.614421581128	1026.420305160810	592.905484801176	542.041038542818	1047.378555062459	506.813297417696	550.911611386281	939.303754776093	721.948130809906	338.850585010975	826.735458781949	627.993661518037	269.929337615546	878.979033770007	534.877326249654	340.941209541483	861.498376916353	466.174133463847	350.874853459297	824.941375978998	401.224829334266	340.070147391343	721.218639162875	302.437996154807	283.993613754995	746.159202760605	185.901657552794	358.518061048715	1029.024543251516	416.787454378839	559.424392263636	969.358760112334	305.883701761621	621.045651463983	1030.989363339365	217.027929215711	566.006033598540	923.359640459383	42.588124051972	537.905330135031	1091.503232627488	102.281540967441	572.794460164297	1008.248280856991	36.534493506583	610.794082747429	1213.861177186497	55.584871000435	596.843973689927	597.989776746310	39.835614091265	394.640355357540	673.181681058051	35.458284418784	315.669926790036	757.254100322648	95.484169453209	343.875580681745	885.300392792074	40.028277310396	316.127198805940	989.473921499996	1101.737740212235	121.564752768431	1244.201737309900	1092.071768546537	144.586636604749	724.703099350896	1126.901972198799	708.277612852208	678.883584360309	868.829617796871	709.748642651006	
127	52.598000000000	715.537481968440	1000.302017183970	444.247201021015	923.694919093141	1424.840776277259	284.585338971615	1000.921972367267	1351.120189802897	457.879664837925	895.345280536047	1427.026644575509	619.311749096164	904.720168035441	1485.367137132140	434.307215593738	929.674043535101	932.454590332859	584.804197120079	941.499345589657	949.409465562964	310.151810079251	1000.522198857635	751.408131593022	557.443891759977	937.026573300907	631.936396368376	616.736536620043	1027.168898883725	591.901073266770	541.055059963709	1047.002280121658	504.794546498045	549.611807050740	940.412611733260	721.104913078903	340.301845440851	827.396962027064	627.158668639641	272.119742877801	880.106743277740	533.754980276282	342.669036863711	862.769135646929	464.180730401686	352.281493047536	824.408958463905	399.826273235732	341.503065596759	718.713392910994	303.163951498208	285.128819727781	741.679036385109	185.779554384306	358.861765189040	1027.601148682088	414.546517124822	558.494758021924	966.834391040837	304.550027903667	620.915054195133	1025.814871105986	214.608555678323	564.650084586620	914.247910981635	42.119434232554	537.762428434106	1083.511336116194	99.999489315246	571.112807107196	999.391679387871	35.944862704082	610.404353775676	1205.603499116179	51.684105388181	595.019797366057	591.497245596148	41.286646803289	394.384658487650	666.762735893115	36.095935924501	315.610415385600	751.296902902963	95.618713243982	343.708696420801	878.894080800395	39.724499349425	316.019241432018	987.921815750367	1099.645565930254	125.749146772841	1242.828701198886	1089.085811547022	148.694772139007	727.266986764055	1124.027937035256	710.148587513608	682.540499002108	865.601255166377	710.308145965052	
128	52.611000000000	716.558393619228	999.625616436360	446.922768656361	923.717626725718	1424.569539927611	287.530565598533	1001.255958109291	1351.025133225692	460.768988738547	895.507135398566	1426.470636962365	622.358476922473	904.826959183974	1485.081581008468	437.350154891947	931.543297691153	931.994559922533	586.961749973419	942.441206796633	949.305342717459	312.460020400015	1002.547497674768	750.608839728240	557.559589336244	939.215767318512	631.683293733521	617.064893899526	1027.973368710612	591.318483823579	540.134794859429	1046.837573770132	503.300503243231	548.643321787965	941.881116468100	720.647624645360	341.878795236180	828.830188689926	626.329617532267	274.490598771830	882.409293727946	532.769629863119	344.572574169280	865.371059627533	462.143075458237	353.709398171989	824.914241835200	398.432098481682	343.005110586652	717.004014143982	304.251708200006	286.391655487829	737.744406531351	185.939935558019	359.195494860856	1026.485022751604	412.916506140042	557.871628461379	964.902693889898	303.756207073691	621.160110547343	1021.343423239314	212.869748576964	563.672371936054	906.324580683580	41.910242156514	537.855421398089	1076.374752525794	98.572169930801	569.968220520250	991.667255989414	35.762359484168	610.311094778262	1198.306734547378	49.109915945450	593.840377281175	585.182452110179	43.549677564022	394.113845432710	660.462944905024	37.186338403009	315.544584819019	745.665061696633	95.890252332133	343.472933344683	872.524896794436	39.371689523729	315.901651564747	985.845474893498	1097.644951293170	130.171640178360	1240.931448816758	1084.871994351028	152.869217678837	730.769735188423	1120.874575906636	712.270426103551	688.029555107402	861.958229012560	711.163716195406	
